# xmcd
# 
# Track frame offsets:
#     175
#     22872
#     60567
#     81695
#     113622
#     135370
#     164700
#     184370
#     220690
#     238415
# 
# Disc length: 3383
# 
# Revision: 0
# Processed by: cddbd v1.5.2PL0 Copyright (c) Steve Scherf et al.
# Submitted via: BonkEnc v1.0.6
# 
DISCID=8b0d350a
DTITLE=Bobby Previte - Claude's Late Morning
DYEAR=1988
DGENRE=Contemporary Jazz
TTITLE0=Look Both Ways
TTITLE1=One Bowl
TTITLE2=The King So Far
TTITLE3=Sometimes You Need An Airport
TTITLE4=The Voice
TTITLE5=Claude's Late Morning
TTITLE6=First Song For Kate
TTITLE7=Ballet
TTITLE8=Look Both Ways [Reprise]
TTITLE9=Bud
EXTD=
EXTT0=
EXTT1=
EXTT2=
EXTT3=
EXTT4=
EXTT5=
EXTT6=
EXTT7=
EXTT8=
EXTT9=
PLAYORDER=
